<svg xmlns="http://www.w3.org/2000/svg" xmlns:xlink="http://www.w3.org/1999/xlink" width="469" zoomAndPan="magnify" viewBox="0 0 351.75 138.749998" height="185" preserveAspectRatio="xMidYMid meet" version="1.0"><defs><g/></defs><g fill="#ffffff" fill-opacity="1"><g transform="translate(47.615828, 85.011769)"><g><path d="M 4.140625 0 L 4.140625 -59.359375 L 16.359375 -59.359375 L 16.359375 0 Z M 4.140625 0 "/></g></g></g><g fill="#ffffff" fill-opacity="1"><g transform="translate(64.665369, 85.011769)"><g><path d="M 39.96875 -16.015625 L 14.296875 -16.015625 C 14.296875 -13.523438 15.097656 -11.679688 16.703125 -10.484375 C 18.316406 -9.296875 20.066406 -8.703125 21.953125 -8.703125 C 23.929688 -8.703125 25.492188 -8.960938 26.640625 -9.484375 C 27.796875 -10.015625 29.109375 -11.0625 30.578125 -12.625 L 39.421875 -8.21875 C 35.734375 -2.050781 29.609375 1.03125 21.046875 1.03125 C 15.710938 1.03125 11.132812 -0.796875 7.3125 -4.453125 C 3.5 -8.109375 1.59375 -12.515625 1.59375 -17.671875 C 1.59375 -22.828125 3.5 -27.242188 7.3125 -30.921875 C 11.132812 -34.609375 15.710938 -36.453125 21.046875 -36.453125 C 26.660156 -36.453125 31.226562 -34.828125 34.75 -31.578125 C 38.269531 -28.335938 40.03125 -23.703125 40.03125 -17.671875 C 40.03125 -16.835938 40.007812 -16.285156 39.96875 -16.015625 Z M 14.640625 -22.78125 L 28.09375 -22.78125 C 27.820312 -24.625 27.097656 -26.039062 25.921875 -27.03125 C 24.742188 -28.019531 23.238281 -28.515625 21.40625 -28.515625 C 19.375 -28.515625 17.757812 -27.984375 16.5625 -26.921875 C 15.363281 -25.859375 14.722656 -24.476562 14.640625 -22.78125 Z M 14.640625 -22.78125 "/></g></g></g><g fill="#ffffff" fill-opacity="1"><g transform="translate(102.837465, 85.011769)"><g><path d="M 6.5625 -4.375 C 3.25 -7.988281 1.59375 -12.421875 1.59375 -17.671875 C 1.59375 -22.921875 3.25 -27.363281 6.5625 -31 C 9.875 -34.632812 14.082031 -36.453125 19.1875 -36.453125 C 23.882812 -36.453125 27.75 -34.976562 30.78125 -32.03125 L 30.78125 -35.40625 L 43 -35.40625 L 43 0 L 30.921875 0 L 30.921875 -4 L 30.78125 -4 C 27.75 -0.644531 23.882812 1.03125 19.1875 1.03125 C 14.082031 1.03125 9.875 -0.769531 6.5625 -4.375 Z M 16.9375 -23.671875 C 15.351562 -22.109375 14.5625 -20.109375 14.5625 -17.671875 C 14.5625 -15.234375 15.320312 -13.242188 16.84375 -11.703125 C 18.363281 -10.160156 20.363281 -9.390625 22.84375 -9.390625 C 25.238281 -9.390625 27.207031 -10.171875 28.75 -11.734375 C 30.289062 -13.296875 31.0625 -15.273438 31.0625 -17.671875 C 31.0625 -20.109375 30.265625 -22.109375 28.671875 -23.671875 C 27.085938 -25.242188 25.144531 -26.03125 22.84375 -26.03125 C 20.5 -26.03125 18.53125 -25.242188 16.9375 -23.671875 Z M 16.9375 -23.671875 "/></g></g></g><g fill="#ffffff" fill-opacity="1"><g transform="translate(146.531798, 85.011769)"><g><path d="M 4.140625 0 L 4.140625 -35.40625 L 16.359375 -35.40625 L 16.359375 -30.3125 L 16.5 -30.3125 C 16.59375 -30.488281 16.738281 -30.710938 16.9375 -30.984375 C 17.144531 -31.265625 17.59375 -31.75 18.28125 -32.4375 C 18.976562 -33.132812 19.71875 -33.757812 20.5 -34.3125 C 21.28125 -34.863281 22.289062 -35.359375 23.53125 -35.796875 C 24.78125 -36.234375 26.050781 -36.453125 27.34375 -36.453125 C 28.675781 -36.453125 29.984375 -36.265625 31.265625 -35.890625 C 32.554688 -35.523438 33.5 -35.160156 34.09375 -34.796875 L 35.0625 -34.234375 L 29.953125 -23.890625 C 28.441406 -25.171875 26.328125 -25.8125 23.609375 -25.8125 C 22.140625 -25.8125 20.875 -25.488281 19.8125 -24.84375 C 18.75 -24.207031 18 -23.425781 17.5625 -22.5 C 17.125 -21.582031 16.8125 -20.800781 16.625 -20.15625 C 16.445312 -19.507812 16.359375 -19.003906 16.359375 -18.640625 L 16.359375 0 Z M 4.140625 0 "/></g></g></g><g fill="#ffffff" fill-opacity="1"><g transform="translate(177.455953, 85.011769)"><g><path d="M 4.140625 0 L 4.140625 -35.40625 L 16.359375 -35.40625 L 16.359375 -31.6875 L 16.5 -31.6875 C 19.675781 -34.863281 23.054688 -36.453125 26.640625 -36.453125 C 28.390625 -36.453125 30.128906 -36.21875 31.859375 -35.75 C 33.585938 -35.289062 35.242188 -34.578125 36.828125 -33.609375 C 38.410156 -32.648438 39.695312 -31.285156 40.6875 -29.515625 C 41.675781 -27.742188 42.171875 -25.679688 42.171875 -23.328125 L 42.171875 0 L 29.953125 0 L 29.953125 -20.015625 C 29.953125 -21.859375 29.363281 -23.46875 28.1875 -24.84375 C 27.019531 -26.226562 25.492188 -26.921875 23.609375 -26.921875 C 21.765625 -26.921875 20.09375 -26.207031 18.59375 -24.78125 C 17.101562 -23.351562 16.359375 -21.765625 16.359375 -20.015625 L 16.359375 0 Z M 4.140625 0 "/></g></g></g><g fill="#8c52ff" fill-opacity="1"><g transform="translate(219.641787, 85.011769)"><g><path d="M 5.3125 -55.15625 C 6.738281 -56.582031 8.441406 -57.296875 10.421875 -57.296875 C 12.398438 -57.296875 14.101562 -56.582031 15.53125 -55.15625 C 16.957031 -53.726562 17.671875 -52.023438 17.671875 -50.046875 C 17.671875 -48.066406 16.957031 -46.363281 15.53125 -44.9375 C 14.101562 -43.507812 12.398438 -42.796875 10.421875 -42.796875 C 8.441406 -42.796875 6.738281 -43.507812 5.3125 -44.9375 C 3.882812 -46.363281 3.171875 -48.066406 3.171875 -50.046875 C 3.171875 -52.023438 3.882812 -53.726562 5.3125 -55.15625 Z M 4.140625 -35.40625 L 4.140625 0 L 16.359375 0 L 16.359375 -35.40625 Z M 4.140625 -35.40625 "/></g></g></g><g fill="#8c52ff" fill-opacity="1"><g transform="translate(237.036466, 85.011769)"><g><path d="M 6.21875 -35.40625 L 6.21875 -42.9375 C 6.257812 -48.226562 7.5 -52.460938 9.9375 -55.640625 C 12.375 -58.816406 15.757812 -60.40625 20.09375 -60.40625 C 21.925781 -60.40625 23.679688 -60.140625 25.359375 -59.609375 C 27.046875 -59.078125 28.257812 -58.535156 29 -57.984375 L 30.171875 -57.234375 L 25.890625 -48.59375 C 24.785156 -49.238281 23.566406 -49.5625 22.234375 -49.5625 C 20.710938 -49.5625 19.695312 -49.039062 19.1875 -48 C 18.6875 -46.96875 18.4375 -45.164062 18.4375 -42.59375 L 18.4375 -35.40625 L 26.578125 -35.40625 L 26.578125 -26.09375 L 18.4375 -26.09375 L 18.4375 0 L 6.21875 0 L 6.21875 -26.09375 L 1.109375 -26.09375 L 1.109375 -35.40625 Z M 6.21875 -35.40625 "/></g></g></g><g fill="#8c52ff" fill-opacity="1"><g transform="translate(259.47018, 85.011769)"><g><path d="M 31 -35.40625 L 45.078125 -35.40625 L 17.25 17.953125 L 3.171875 17.953125 L 15.390625 -5.515625 L -1.375 -35.40625 L 12.703125 -35.40625 L 22.578125 -17.25 Z M 31 -35.40625 "/></g></g></g></svg>